<svg width="32" height="32" viewBox="0 0 32 32" fill="none" xmlns="http://www.w3.org/2000/svg">
<path d="M8.38428 9.59999H23.615V20.7692H8.38428V9.59999Z" stroke="white" stroke-width="1.5" stroke-linecap="round" stroke-linejoin="round"/>
<path d="M18.5381 9.59999V20.7692" stroke="white" stroke-width="1.5" stroke-linecap="round" stroke-linejoin="round"/>
<path d="M20.5688 15.6923H21.5842" stroke="white" stroke-width="1.5" stroke-linecap="round" stroke-linejoin="round"/>
<path d="M20.5688 17.7231H21.5842" stroke="white" stroke-width="1.5" stroke-linecap="round" stroke-linejoin="round"/>
<path d="M21.0766 12.9C21.1268 12.9 21.1759 12.9149 21.2176 12.9428C21.2594 12.9707 21.2919 13.0103 21.3111 13.0567C21.3303 13.1031 21.3354 13.1541 21.3256 13.2034C21.3158 13.2526 21.2916 13.2978 21.2561 13.3333C21.2206 13.3688 21.1754 13.393 21.1261 13.4028C21.0769 13.4126 21.0258 13.4076 20.9795 13.3884C20.9331 13.3691 20.8934 13.3366 20.8655 13.2949C20.8376 13.2531 20.8228 13.204 20.8228 13.1538C20.8228 13.0865 20.8495 13.0219 20.8971 12.9743C20.9447 12.9267 21.0093 12.9 21.0766 12.9" stroke="white" stroke-width="1.5" stroke-linecap="round" stroke-linejoin="round"/>
<path d="M9.3999 22.8L11.4307 20.7692" stroke="white" stroke-width="1.5" stroke-linecap="round" stroke-linejoin="round"/>
<path d="M22.5996 22.8L20.5688 20.7692" stroke="white" stroke-width="1.5" stroke-linecap="round" stroke-linejoin="round"/>
</svg>
