<svg width="56" height="56" viewBox="0 0 56 56" fill="none" xmlns="http://www.w3.org/2000/svg">
<g clip-path="url(#clip0_5421_3278)">
<g filter="url(#filter0_d_5421_3278)">
<path fill-rule="evenodd" clip-rule="evenodd" d="M13.3809 9.2862V46.0584C13.3808 47.1676 13.8905 48.1952 14.7233 48.7648C15.5561 49.3344 16.5894 49.3621 17.4447 48.8379L47.4735 30.4518C48.3698 29.9026 48.9291 28.8346 48.9291 27.6723C48.9291 26.5101 48.3698 25.442 47.4735 24.8928L17.4447 6.50673C16.5894 5.98247 15.5561 6.01021 14.7233 6.57979C13.8905 7.14937 13.3808 8.17704 13.3809 9.2862Z" stroke="url(#paint0_linear_5421_3278)" stroke-width="1.5" stroke-linecap="round" stroke-linejoin="round"/>
</g>
<g filter="url(#filter1_d_5421_3278)">
<path fill-rule="evenodd" clip-rule="evenodd" d="M12.2086 45.4207L48.638 40.4115C49.7369 40.2605 50.6855 39.6156 51.1363 38.713C51.5872 37.8104 51.4739 36.7829 50.838 36.007L28.5327 8.76267C27.8666 7.94954 26.7323 7.54089 25.5809 7.69922C24.4294 7.85754 23.4475 8.55718 23.0256 9.51992L8.90145 41.7734C8.49858 42.6921 8.66682 43.712 9.34454 44.4595C10.0222 45.2069 11.1098 45.5719 12.2086 45.4207Z" stroke="url(#paint1_linear_5421_3278)" stroke-width="1.5" stroke-linecap="round" stroke-linejoin="round"/>
</g>
</g>
<defs>
<filter id="filter0_d_5421_3278" x="5.07959" y="2.44263" width="52.1519" height="58.4593" filterUnits="userSpaceOnUse" color-interpolation-filters="sRGB">
<feFlood flood-opacity="0" result="BackgroundImageFix"/>
<feColorMatrix in="SourceAlpha" type="matrix" values="0 0 0 0 0 0 0 0 0 0 0 0 0 0 0 0 0 0 127 0" result="hardAlpha"/>
<feOffset dy="4"/>
<feGaussianBlur stdDeviation="2"/>
<feColorMatrix type="matrix" values="0 0 0 0 0 0 0 0 0 0 0 0 0 0 0 0 0 0 0.25 0"/>
<feBlend mode="normal" in2="BackgroundImageFix" result="effect1_dropShadow_5421_3278"/>
<feBlend mode="normal" in="SourceGraphic" in2="effect1_dropShadow_5421_3278" result="shape"/>
</filter>
<filter id="filter1_d_5421_3278" x="-4" y="0" width="64.0034" height="58.614" filterUnits="userSpaceOnUse" color-interpolation-filters="sRGB">
<feFlood flood-opacity="0" result="BackgroundImageFix"/>
<feColorMatrix in="SourceAlpha" type="matrix" values="0 0 0 0 0 0 0 0 0 0 0 0 0 0 0 0 0 0 127 0" result="hardAlpha"/>
<feOffset dy="4"/>
<feGaussianBlur stdDeviation="2"/>
<feColorMatrix type="matrix" values="0 0 0 0 0 0 0 0 0 0 0 0 0 0 0 0 0 0 0.25 0"/>
<feBlend mode="normal" in2="BackgroundImageFix" result="effect1_dropShadow_5421_3278"/>
<feBlend mode="normal" in="SourceGraphic" in2="effect1_dropShadow_5421_3278" result="shape"/>
</filter>
<linearGradient id="paint0_linear_5421_3278" x1="14.2833" y1="6.1322" x2="55.2844" y2="41.0114" gradientUnits="userSpaceOnUse">
<stop stop-color="#0FEFFD"/>
<stop offset="0.515718" stop-color="#FF00F5"/>
<stop offset="0.776042" stop-color="#0FEFFD" stop-opacity="0"/>
</linearGradient>
<linearGradient id="paint1_linear_5421_3278" x1="8.96105" y1="44.9563" x2="37.9299" y2="-0.413868" gradientUnits="userSpaceOnUse">
<stop stop-color="#0FEFFD"/>
<stop offset="0.515718" stop-color="#FF00F5"/>
<stop offset="0.776042" stop-color="#0FEFFD" stop-opacity="0"/>
</linearGradient>
<clipPath id="clip0_5421_3278">
<rect width="56" height="56" fill="white"/>
</clipPath>
</defs>
</svg>
