<svg width="80" height="16" viewBox="0 0 80 16" fill="none" xmlns="http://www.w3.org/2000/svg">
<path d="M8.95825 6.3656L9.13403 6.86853H12.5208L10.3108 8.6283L9.91724 8.9408L10.0579 9.42419L10.8684 12.2172L8.42017 10.5638L8.00024 10.2797L7.58032 10.5638L5.1311 12.2172L5.94263 9.42419L6.08228 8.9408L5.6897 8.6283L3.47974 6.86853H6.86646L7.04126 6.3656L7.99927 3.61365L8.95825 6.3656Z" fill="white" stroke="white" stroke-width="1.5"/>
<path d="M24.9583 6.3656L25.134 6.86853H28.5208L26.3108 8.6283L25.9172 8.9408L26.0579 9.42419L26.8684 12.2172L24.4202 10.5638L24.0002 10.2797L23.5803 10.5638L21.1311 12.2172L21.9426 9.42419L22.0823 8.9408L21.6897 8.6283L19.4797 6.86853H22.8665L23.0413 6.3656L23.9993 3.61365L24.9583 6.3656Z" fill="white" stroke="white" stroke-width="1.5"/>
<path d="M40.9583 6.3656L41.134 6.86853H44.5208L42.3108 8.6283L41.9172 8.9408L42.0579 9.42419L42.8684 12.2172L40.4202 10.5638L40.0002 10.2797L39.5803 10.5638L37.1311 12.2172L37.9426 9.42419L38.0823 8.9408L37.6897 8.6283L35.4797 6.86853H38.8665L39.0413 6.3656L39.9993 3.61365L40.9583 6.3656Z" fill="white" stroke="white" stroke-width="1.5"/>
<path d="M56.9583 6.3656L57.134 6.86853H60.5208L58.3108 8.6283L57.9172 8.9408L58.0579 9.42419L58.8684 12.2172L56.4202 10.5638L56.0002 10.2797L55.5803 10.5638L53.1311 12.2172L53.9426 9.42419L54.0823 8.9408L53.6897 8.6283L51.4797 6.86853H54.8665L55.0413 6.3656L55.9993 3.61365L56.9583 6.3656Z" fill="white" stroke="white" stroke-width="1.5"/>
<path d="M72.9583 6.3656L73.134 6.86853H76.5208L74.3108 8.6283L73.9172 8.9408L74.0579 9.42419L74.8684 12.2172L72.4202 10.5638L72.0002 10.2797L71.5803 10.5638L69.1311 12.2172L69.9426 9.42419L70.0823 8.9408L69.6897 8.6283L67.4797 6.86853H70.8665L71.0413 6.3656L71.9993 3.61365L72.9583 6.3656Z" fill="white" stroke="white" stroke-width="1.5"/>
</svg>
