<svg width="32" height="32" viewBox="0 0 32 32" fill="none" xmlns="http://www.w3.org/2000/svg">
<path d="M8.38477 9.59999H23.6155V20.7692H8.38477V9.59999Z" stroke="white" stroke-width="1.5" stroke-linecap="round" stroke-linejoin="round"/>
<path d="M18.5391 9.59999V20.7692" stroke="white" stroke-width="1.5" stroke-linecap="round" stroke-linejoin="round"/>
<path d="M20.5693 15.6923H21.5847" stroke="white" stroke-width="1.5" stroke-linecap="round" stroke-linejoin="round"/>
<path d="M20.5693 17.7231H21.5847" stroke="white" stroke-width="1.5" stroke-linecap="round" stroke-linejoin="round"/>
<path d="M21.0771 12.9C21.1273 12.9 21.1764 12.9149 21.2181 12.9428C21.2599 12.9707 21.2924 13.0103 21.3116 13.0567C21.3308 13.1031 21.3359 13.1541 21.3261 13.2034C21.3163 13.2526 21.2921 13.2978 21.2566 13.3333C21.2211 13.3688 21.1759 13.393 21.1266 13.4028C21.0774 13.4126 21.0263 13.4076 20.9799 13.3884C20.9336 13.3691 20.8939 13.3366 20.866 13.2949C20.8381 13.2531 20.8232 13.204 20.8232 13.1538C20.8232 13.0865 20.85 13.0219 20.8976 12.9743C20.9452 12.9267 21.0098 12.9 21.0771 12.9" stroke="white" stroke-width="1.5" stroke-linecap="round" stroke-linejoin="round"/>
<path d="M9.40039 22.8L11.4312 20.7692" stroke="white" stroke-width="1.5" stroke-linecap="round" stroke-linejoin="round"/>
<path d="M22.6001 22.8L20.5693 20.7692" stroke="white" stroke-width="1.5" stroke-linecap="round" stroke-linejoin="round"/>
</svg>
